<svg width="24" height="24" viewBox="0 0 24 24" fill="none" xmlns="http://www.w3.org/2000/svg">
<path d="M20.0795 6.13673H15.1558C14.6853 6.13673 14.3039 6.51804 14.3039 6.98863C14.3039 7.45911 14.6853 7.84053 15.1558 7.84053H19.2277V22.2962H4.77246V7.84053H8.84385C9.31444 7.84053 9.69575 7.45922 9.69575 6.98863C9.69575 6.51804 9.31444 6.13673 8.84385 6.13673H3.92056C3.45009 6.13673 3.06866 6.51804 3.06866 6.98863V23.1481C3.06866 23.6187 3.45009 24 3.92056 24H20.0796C20.5502 24 20.9315 23.6187 20.9315 23.1481V6.98863C20.9314 6.51816 20.5501 6.13673 20.0795 6.13673Z" fill="#31C45B"/>
<path d="M9.32071 11.5254C8.98802 11.1927 8.4486 11.1926 8.11601 11.5253C7.78321 11.8581 7.78321 12.3974 8.1159 12.7301L11.3973 16.0116C11.5571 16.1714 11.7737 16.2611 11.9998 16.2611C12.2257 16.2611 12.4423 16.1714 12.6021 16.0117L15.8837 12.7302C16.2165 12.3975 16.2165 11.8581 15.8838 11.5255C15.5512 11.1928 15.0117 11.1927 14.6791 11.5254L12.8518 13.3526V0.851898C12.8518 0.381309 12.4705 0 11.9999 0C11.5293 0 11.148 0.381309 11.148 0.851898V13.3525L9.32071 11.5254Z" fill="#31C45B"/>
</svg>
